REM DIRINDEX 1\2,1\3,1\4,1\5,1\6
REM DIRNAME cjc030,folder01,folder02,folder03,folder04,folder05
TITLE ""
FILE "Disc6Track06.mp3" MP3
  TRACK 01 AUDIO
    TITLE "3:cjc030_10505"
    INDEX 01 00:00:00
  TRACK 02 AUDIO
    TITLE "0:"
    INDEX 01 00:00:66
  TRACK 03 AUDIO
    TITLE "4:cjc030_10506"
    INDEX 01 00:01:01
  TRACK 04 AUDIO
    TITLE "0:"
    INDEX 01 00:01:64
  TRACK 05 AUDIO
    TITLE "5:cjc030_10507"
    INDEX 01 00:01:71
  TRACK 06 AUDIO
    TITLE "0:"
    INDEX 01 00:02:67
  TRACK 07 AUDIO
    TITLE "3:cjc030_10508"
    INDEX 01 00:03:49
  TRACK 08 AUDIO
    TITLE "0:"
    INDEX 01 00:04:48
  TRACK 09 AUDIO
    TITLE "4:cjc030_10509"
    INDEX 01 00:04:58
  TRACK 10 AUDIO
    TITLE "0:"
    INDEX 01 00:06:39
  TRACK 11 AUDIO
    TITLE "5:cjc030_10510"
    INDEX 01 00:06:49
  TRACK 12 AUDIO
    TITLE "0:"
    INDEX 01 00:07:47
  TRACK 13 AUDIO
    TITLE "6:cjc030_10511"
    INDEX 01 00:07:60
  TRACK 14 AUDIO
    TITLE "0:"
    INDEX 01 00:11:74
  TRACK 15 AUDIO
    TITLE "3:cjc030_10512"
    INDEX 01 00:12:48
  TRACK 16 AUDIO
    TITLE "0:"
    INDEX 01 00:13:55
  TRACK 17 AUDIO
    TITLE "4:cjc030_10513"
    INDEX 01 00:13:67
  TRACK 18 AUDIO
    TITLE "0:"
    INDEX 01 00:15:17
  TRACK 19 AUDIO
    TITLE "5:cjc030_10514"
    INDEX 01 00:15:23
  TRACK 20 AUDIO
    TITLE "0:"
    INDEX 01 00:16:34
  TRACK 21 AUDIO
    TITLE "3:cjc030_10515"
    INDEX 01 00:17:16
  TRACK 22 AUDIO
    TITLE "0:"
    INDEX 01 00:18:11
  TRACK 23 AUDIO
    TITLE "4:cjc030_10516"
    INDEX 01 00:18:19
  TRACK 24 AUDIO
    TITLE "0:"
    INDEX 01 00:19:03
  TRACK 25 AUDIO
    TITLE "5:cjc030_10517"
    INDEX 01 00:19:15
  TRACK 26 AUDIO
    TITLE "0:"
    INDEX 01 00:20:10
  TRACK 27 AUDIO
    TITLE "6:cjc030_10518"
    INDEX 01 00:20:20
  TRACK 28 AUDIO
    TITLE "0:"
    INDEX 01 00:25:17
  TRACK 29 AUDIO
    TITLE "3:cjc030_10519"
    INDEX 01 00:25:64
  TRACK 30 AUDIO
    TITLE "0:"
    INDEX 01 00:26:64
  TRACK 31 AUDIO
    TITLE "4:cjc030_10520"
    INDEX 01 00:26:73
  TRACK 32 AUDIO
    TITLE "0:"
    INDEX 01 00:28:55
  TRACK 33 AUDIO
    TITLE "5:cjc030_10521"
    INDEX 01 00:28:62
  TRACK 34 AUDIO
    TITLE "0:"
    INDEX 01 00:29:64
  TRACK 35 AUDIO
    TITLE "3:cjc030_10522"
    INDEX 01 00:30:44
  TRACK 36 AUDIO
    TITLE "0:"
    INDEX 01 00:31:43
  TRACK 37 AUDIO
    TITLE "4:cjc030_10523"
    INDEX 01 00:31:55
  TRACK 38 AUDIO
    TITLE "0:"
    INDEX 01 00:33:56
  TRACK 39 AUDIO
    TITLE "5:cjc030_10524"
    INDEX 01 00:33:64
  TRACK 40 AUDIO
    TITLE "0:"
    INDEX 01 00:34:67
  TRACK 41 AUDIO
    TITLE "3:cjc030_10525"
    INDEX 01 00:35:49
  TRACK 42 AUDIO
    TITLE "0:"
    INDEX 01 00:36:56
  TRACK 43 AUDIO
    TITLE "4:cjc030_10526"
    INDEX 01 00:36:64
  TRACK 44 AUDIO
    TITLE "0:"
    INDEX 01 00:38:14
  TRACK 45 AUDIO
    TITLE "5:cjc030_10527"
    INDEX 01 00:38:22
  TRACK 46 AUDIO
    TITLE "0:"
    INDEX 01 00:39:31
  TRACK 47 AUDIO
    TITLE "3:cjc030_10528"
    INDEX 01 00:40:11
  TRACK 48 AUDIO
    TITLE "0:"
    INDEX 01 00:41:22
  TRACK 49 AUDIO
    TITLE "4:cjc030_10529"
    INDEX 01 00:41:34
  TRACK 50 AUDIO
    TITLE "0:"
    INDEX 01 00:42:04
  TRACK 51 AUDIO
    TITLE "5:cjc030_10530"
    INDEX 01 00:42:14
  TRACK 52 AUDIO
    TITLE "0:"
    INDEX 01 00:43:25
  TRACK 53 AUDIO
    TITLE "6:cjc030_10531"
    INDEX 01 00:43:35
  TRACK 54 AUDIO
    TITLE "0:"
    INDEX 01 00:45:53
  TRACK 55 AUDIO
    TITLE "3:cjc030_10532"
    INDEX 01 00:46:25
  TRACK 56 AUDIO
    TITLE "0:"
    INDEX 01 00:47:28
  TRACK 57 AUDIO
    TITLE "4:cjc030_10533"
    INDEX 01 00:47:40
  TRACK 58 AUDIO
    TITLE "0:"
    INDEX 01 00:48:40
  TRACK 59 AUDIO
    TITLE "5:cjc030_10534"
    INDEX 01 00:48:49
  TRACK 60 AUDIO
    TITLE "0:"
    INDEX 01 00:49:53
  TRACK 61 AUDIO
    TITLE "6:cjc030_10535"
    INDEX 01 00:49:67
  TRACK 62 AUDIO
    TITLE "0:"
    INDEX 01 00:52:20
  TRACK 63 AUDIO
    TITLE "3:cjc030_10536"
    INDEX 01 00:52:67
  TRACK 64 AUDIO
    TITLE "0:"
    INDEX 01 00:54:07
  TRACK 65 AUDIO
    TITLE "4:cjc030_10537"
    INDEX 01 00:54:19
  TRACK 66 AUDIO
    TITLE "0:"
    INDEX 01 00:55:40
  TRACK 67 AUDIO
    TITLE "5:cjc030_10538"
    INDEX 01 00:55:46
  TRACK 68 AUDIO
    TITLE "0:"
    INDEX 01 00:56:65
  TRACK 69 AUDIO
    TITLE "3:cjc030_10539"
    INDEX 01 00:57:43
  TRACK 70 AUDIO
    TITLE "0:"
    INDEX 01 00:58:66
  TRACK 71 AUDIO
    TITLE "4:cjc030_10540"
    INDEX 01 00:59:02
  TRACK 72 AUDIO
    TITLE "0:"
    INDEX 01 01:00:27
  TRACK 73 AUDIO
    TITLE "5:cjc030_10541"
    INDEX 01 01:00:37
  TRACK 74 AUDIO
    TITLE "0:"
    INDEX 01 01:01:62
  TRACK 75 AUDIO
    TITLE "6:cjc030_10542"
    INDEX 01 01:01:72
  TRACK 76 AUDIO
    TITLE "0:"
    INDEX 01 01:04:23
  TRACK 77 AUDIO
    TITLE "3:cjc030_10543"
    INDEX 01 01:04:70
  TRACK 78 AUDIO
    TITLE "0:"
    INDEX 01 01:06:02
  TRACK 79 AUDIO
    TITLE "4:cjc030_10544"
    INDEX 01 01:06:14
  TRACK 80 AUDIO
    TITLE "0:"
    INDEX 01 01:08:09
  TRACK 81 AUDIO
    TITLE "5:cjc030_10545"
    INDEX 01 01:08:19
  TRACK 82 AUDIO
    TITLE "0:"
    INDEX 01 01:09:26
  TRACK 83 AUDIO
    TITLE "6:cjc030_10546"
    INDEX 01 01:09:36
  TRACK 84 AUDIO
    TITLE "0:"
    INDEX 01 01:12:26
  TRACK 85 AUDIO
    TITLE "3:cjc030_10547"
    INDEX 01 01:12:73
  TRACK 86 AUDIO
    TITLE "0:"
    INDEX 01 01:13:69
  TRACK 87 AUDIO
    TITLE "4:cjc030_10548"
    INDEX 01 01:14:04
  TRACK 88 AUDIO
    TITLE "0:"
    INDEX 01 01:15:46
  TRACK 89 AUDIO
    TITLE "5:cjc030_10549"
    INDEX 01 01:15:56
  TRACK 90 AUDIO
    TITLE "0:"
    INDEX 01 01:16:52
  TRACK 91 AUDIO
    TITLE "6:cjc030_10550"
    INDEX 01 01:16:61
  TRACK 92 AUDIO
    TITLE "0:"
    INDEX 01 01:20:65
  TRACK 93 AUDIO
    TITLE "3:cjc030_10551"
    INDEX 01 01:21:37
  TRACK 94 AUDIO
    TITLE "0:"
    INDEX 01 01:22:37
  TRACK 95 AUDIO
    TITLE "4:cjc030_10552"
    INDEX 01 01:22:46
  TRACK 96 AUDIO
    TITLE "0:"
    INDEX 01 01:25:31
  TRACK 97 AUDIO
    TITLE "5:cjc030_10553"
    INDEX 01 01:25:37
  TRACK 98 AUDIO
    TITLE "0:"
    INDEX 01 01:26:40
  TRACK 99 AUDIO
    TITLE "3:cjc030_10554"
    INDEX 01 01:27:18
  TRACK 100 AUDIO
    TITLE "0:"
    INDEX 01 01:28:29
  TRACK 101 AUDIO
    TITLE "4:cjc030_10555"
    INDEX 01 01:28:43
  TRACK 102 AUDIO
    TITLE "0:"
    INDEX 01 01:31:16
  TRACK 103 AUDIO
    TITLE "5:cjc030_10556"
    INDEX 01 01:31:26
  TRACK 104 AUDIO
    TITLE "0:"
    INDEX 01 01:32:43
  TRACK 105 AUDIO
    TITLE "6:cjc030_10557"
    INDEX 01 01:32:51
  TRACK 106 AUDIO
    TITLE "0:"
    INDEX 01 01:36:31
